<?xml version="1.0" standalone="no"?>
<!DOCTYPE svg PUBLIC "-//W3C//DTD SVG 20010904//EN"
 "http://www.w3.org/TR/2001/REC-SVG-20010904/DTD/svg10.dtd">
<svg version="1.0" xmlns="http://www.w3.org/2000/svg"
 width="1825.000000pt" height="495.000000pt" viewBox="0 0 1825.000000 495.000000"
 preserveAspectRatio="xMidYMid meet">

<g transform="translate(0.000000,495.000000) scale(0.100000,-0.100000)"
fill="#242E56" stroke="none">
<path d="M2240 4933 c-585 -59 -1101 -303 -1516 -717 -380 -381 -613 -844
-696 -1381 -25 -165 -30 -500 -10 -655 73 -555 302 -1034 682 -1424 288 -296
607 -497 990 -625 408 -136 883 -162 1305 -71 130 29 306 81 303 91 -2 5 -230
242 -508 526 -902 923 -1203 1243 -1288 1367 -110 158 -209 383 -239 541 -52
271 63 585 301 821 152 151 340 261 522 306 119 29 322 31 439 4 436 -101 710
-424 896 -1054 79 -269 92 -280 273 -222 142 46 192 32 237 -65 49 -107 -10
-220 -148 -281 -87 -39 -211 -67 -293 -67 -60 -1 -87 5 -132 25 -128 59 -199
181 -303 518 -77 247 -107 325 -170 432 -144 246 -399 381 -658 348 -153 -19
-270 -81 -384 -204 -194 -208 -248 -508 -134 -734 53 -105 161 -232 509 -602
222 -236 1452 -1490 1461 -1490 14 0 207 126 288 187 415 317 718 752 867
1246 267 882 24 1837 -630 2479 -132 131 -211 194 -374 303 -321 214 -704 352
-1092 394 -89 10 -415 13 -498 4z"/>
<path d="M6034 4041 c-118 -34 -214 -112 -249 -204 -26 -68 -17 -167 21 -236
53 -98 134 -142 354 -195 80 -19 158 -39 172 -45 69 -26 87 -86 43 -140 -34
-40 -84 -55 -182 -53 -96 1 -183 21 -272 62 -35 17 -65 30 -66 30 -5 0 -115
-159 -121 -175 -8 -19 87 -64 211 -100 120 -35 299 -45 399 -21 134 32 228 97
272 191 32 67 33 179 3 245 -47 105 -131 154 -347 205 -184 44 -221 60 -238
101 -55 132 179 186 385 89 41 -20 75 -34 76 -33 0 2 27 43 59 93 66 104 69
97 -53 144 -158 61 -343 78 -467 42z"/>
<path d="M6860 3505 l0 -535 120 0 120 0 0 230 0 230 255 0 255 0 0 -230 0
-230 120 0 120 0 0 535 0 535 -120 0 -120 0 0 -200 0 -200 -255 0 -255 0 0
200 0 200 -120 0 -120 0 0 -535z"/>
<path d="M8130 3505 l0 -535 430 0 431 0 -3 108 -3 107 -307 3 -308 2 0 120 0
120 215 0 215 0 0 105 0 105 -215 0 -215 0 0 90 0 90 305 0 305 0 0 110 0 110
-425 0 -425 0 0 -535z"/>
<path d="M9210 3505 l0 -535 120 0 120 0 0 179 0 179 203 4 c183 4 208 6 262
28 137 54 213 184 203 348 -10 164 -103 273 -271 318 -39 10 -128 14 -344 14
l-293 0 0 -535z m587 306 c50 -23 74 -57 80 -114 5 -50 -18 -100 -60 -131 -26
-19 -45 -21 -198 -24 l-169 -4 0 146 0 146 153 0 c127 0 159 -3 194 -19z"/>
<path d="M10320 3505 l0 -535 120 0 120 0 0 230 0 230 255 0 255 0 0 -230 0
-230 120 0 120 0 0 535 0 535 -120 0 -120 0 0 -200 0 -200 -255 0 -255 0 0
200 0 200 -120 0 -120 0 0 -535z"/>
<path d="M11590 3505 l0 -535 430 0 431 0 -3 108 -3 107 -307 3 -308 2 0 120
0 120 215 0 215 0 0 105 0 105 -215 0 -215 0 0 90 0 90 305 0 305 0 0 110 0
110 -425 0 -425 0 0 -535z"/>
<path d="M12670 3505 l0 -535 120 0 120 0 2 221 3 221 200 -220 200 -221 160
0 160 -1 -199 199 -199 199 39 6 c21 4 70 16 108 27 57 18 79 31 122 74 67 67
89 131 82 246 -9 161 -95 260 -265 304 -45 12 -123 15 -355 15 l-298 0 0 -535z
m627 299 c15 -11 35 -40 43 -62 13 -37 13 -47 0 -84 -27 -76 -46 -83 -251 -86
l-179 -4 0 132 0 132 179 -4 c164 -3 182 -5 208 -24z"/>
<path d="M13830 3505 l0 -537 268 4 c295 5 334 12 466 81 214 113 315 381 234
622 -51 155 -178 274 -352 332 -78 26 -90 27 -348 31 l-268 4 0 -537z m530
298 c76 -20 143 -66 179 -120 37 -56 46 -95 46 -194 -1 -132 -63 -223 -185
-271 -44 -17 -83 -22 -192 -26 l-138 -4 0 321 0 321 118 -6 c64 -3 142 -12
172 -21z"/>
<path d="M6205 2040 c-210 -45 -371 -192 -431 -395 -24 -80 -24 -220 0 -300
27 -92 75 -173 142 -239 220 -221 608 -221 828 0 107 106 160 235 160 389 0
152 -52 281 -155 385 -109 111 -227 160 -394 166 -60 2 -128 -1 -150 -6z m307
-188 c85 -42 168 -129 199 -209 32 -82 32 -215 0 -296 -32 -81 -115 -168 -200
-210 -63 -30 -72 -32 -181 -32 -110 0 -118 2 -182 33 -85 41 -167 128 -199
209 -32 81 -31 214 0 295 26 68 103 157 168 195 74 43 120 53 229 50 90 -2
107 -6 166 -35z"/>
<path d="M10845 2040 c-210 -45 -371 -192 -431 -395 -24 -80 -24 -220 0 -300
27 -92 75 -173 142 -239 220 -221 608 -221 828 0 107 106 160 235 160 389 0
152 -52 281 -155 385 -109 111 -227 160 -394 166 -60 2 -128 -1 -150 -6z m307
-188 c85 -42 168 -129 199 -209 32 -82 32 -215 0 -296 -32 -81 -115 -168 -200
-210 -63 -30 -72 -32 -181 -32 -110 0 -118 2 -182 33 -85 41 -167 128 -199
209 -32 81 -31 214 0 295 26 68 103 157 168 195 74 43 120 53 229 50 90 -2
107 -6 166 -35z"/>
<path d="M14550 2034 c-293 -77 -476 -359 -416 -644 46 -218 201 -379 421
-435 125 -32 314 -10 423 50 55 30 162 113 162 125 0 10 -114 100 -126 100 -3
0 -25 -16 -47 -36 -22 -20 -65 -48 -96 -62 -50 -23 -69 -26 -171 -27 -109 0
-119 2 -182 32 -300 142 -300 574 0 716 63 30 74 32 177 32 102 0 115 -2 175
-31 36 -17 83 -46 103 -64 l37 -32 55 42 c84 65 83 62 18 114 -71 57 -159 101
-244 121 -80 18 -217 18 -289 -1z"/>
<path d="M17540 2043 c-42 -7 -123 -35 -171 -59 -209 -104 -333 -359 -286
-589 54 -265 258 -438 532 -452 72 -4 119 -1 168 11 122 29 256 109 325 195
l32 40 0 155 0 156 -85 0 -85 0 0 -128 0 -128 -37 -35 c-86 -81 -181 -113
-313 -107 -115 5 -194 42 -273 128 -76 82 -101 147 -100 265 1 145 55 251 165
325 85 57 151 74 263 68 104 -6 177 -33 252 -94 l43 -35 60 47 c33 26 60 50
60 55 0 15 -90 86 -149 118 -109 58 -277 85 -401 64z"/>
<path d="M9625 2026 c-213 -53 -319 -210 -256 -378 43 -113 135 -166 395 -228
94 -22 189 -51 211 -63 84 -47 93 -142 20 -206 -48 -42 -104 -56 -220 -55
-117 1 -208 21 -309 68 l-73 33 -41 -61 c-23 -34 -42 -65 -42 -69 0 -14 142
-75 230 -97 116 -30 300 -38 393 -16 174 41 274 135 284 269 6 76 -8 131 -47
185 -54 74 -143 114 -379 167 -202 45 -268 91 -257 180 17 138 275 176 498 73
43 -20 72 -28 76 -21 4 5 22 33 41 62 l35 53 -23 17 c-35 26 -147 67 -233 85
-90 19 -232 20 -303 2z"/>
<path d="M7132 1683 c4 -299 7 -356 22 -403 76 -235 239 -339 511 -327 252 11
401 132 450 364 11 51 15 148 15 391 l0 322 -84 0 -85 0 -3 -342 c-3 -329 -4
-345 -26 -400 -29 -73 -88 -131 -158 -158 -67 -24 -196 -27 -270 -5 -101 30
-173 122 -194 246 -5 35 -10 198 -10 362 l0 297 -86 0 -86 0 4 -347z"/>
<path d="M8300 1955 l0 -75 185 0 185 0 0 -460 0 -460 85 0 85 0 0 460 0 460
190 0 190 0 0 75 0 75 -460 0 -460 0 0 -75z"/>
<path d="M11762 1683 c4 -299 7 -356 22 -403 76 -235 239 -339 511 -327 252
11 401 132 450 364 11 51 15 148 15 391 l0 322 -84 0 -85 0 -3 -342 c-3 -329
-4 -345 -26 -400 -29 -73 -88 -131 -158 -158 -67 -24 -196 -27 -270 -5 -101
30 -173 122 -194 246 -5 35 -10 198 -10 362 l0 297 -86 0 -86 0 4 -347z"/>
<path d="M13050 1496 l0 -536 85 0 85 0 0 230 c0 127 2 230 5 230 3 0 118
-103 256 -230 l250 -230 122 0 122 1 -32 27 c-18 15 -127 110 -243 212 l-210
185 107 6 c172 10 259 54 318 160 28 50 30 62 30 154 0 93 -2 104 -31 155 -36
64 -104 120 -178 146 -44 16 -92 19 -368 22 l-318 3 0 -535z m594 374 c76 -17
124 -70 132 -145 8 -71 -25 -132 -86 -162 -42 -22 -56 -23 -257 -23 l-213 0 0
170 0 170 193 0 c105 0 210 -5 231 -10z"/>
<path d="M15350 1495 l0 -535 85 0 85 0 0 535 0 535 -85 0 -85 0 0 -535z"/>
<path d="M15830 1495 l0 -535 85 0 85 0 2 411 3 410 329 -410 329 -411 83 0
84 0 0 535 0 535 -85 0 -85 0 0 -411 0 -412 -327 411 -328 411 -87 0 -88 1 0
-535z"/>
</g>
</svg>
